<svg id="Layer_1" data-name="Layer 1" xmlns="http://www.w3.org/2000/svg" viewBox="0 0 494.76 845.52"><defs><style>.cls-1,.cls-3,.cls-7{font-size:20px;}.cls-1,.cls-7{font-family:ArialMT, Arial;}.cls-2,.cls-5,.cls-8{fill:none;stroke-miterlimit:10;}.cls-2{stroke:#000;}.cls-3{font-family:Helvetica;}.cls-4{letter-spacing:-0.05em;}.cls-5{stroke:#2e3192;}.cls-5,.cls-8{stroke-width:4px;}.cls-6,.cls-7{fill:#2e3192;}.cls-8{stroke:#009245;}.cls-9{fill:#009245;}.cls-10{letter-spacing:-0.11em;}</style></defs><text class="cls-1" transform="translate(106.31 17.16)">standards</text><rect class="cls-2" x="0.5" y="23.91" width="297" height="169"/><text class="cls-1" transform="translate(39.15 52.67)">alphabet</text><text class="cls-1" transform="translate(44.77 91.67)">lexicon</text><text class="cls-1" transform="translate(27.58 136.4)">dialect data</text><text class="cls-1" transform="translate(159.28 136.56)">transcriptions</text><text class="cls-1" transform="translate(161.3 91.36)">inflections</text><text class="cls-1" transform="translate(161.77 49.67)">punctuation</text><text class="cls-1" transform="translate(22.21 175.93)">grammar tags</text><text class="cls-1" transform="translate(161.2 176.93)">language tags</text><ellipse class="cls-2" cx="153" cy="324.41" rx="121.5" ry="53.5"/><text class="cls-3" transform="translate(89.3 316.65)">NEN<tspan class="cls-4" x="42.23" y="0">A</tspan><tspan x="54.47" y="0" xml:space="preserve"> mark-up </tspan><tspan x="38.34" y="24">parser</tspan></text><line class="cls-5" x1="300.97" y1="310.41" x2="493" y2="310.41"/><polygon class="cls-6" points="305.88 317.62 279 310.41 305.88 303.21 305.88 317.62"/><text class="cls-7" transform="translate(279.12 292.9)">user inputs mark-up text</text><line class="cls-5" x1="149.42" y1="247.45" x2="148" y2="193.41"/><polygon class="cls-6" points="156.5 242.35 150 269.41 142.09 242.73 156.5 242.35"/><text class="cls-7" transform="translate(152.55 234.22)">reads standards</text><line class="cls-8" x1="158.49" y1="458.45" x2="156.6" y2="377.75"/><polygon class="cls-9" points="165.57 453.37 159 480.41 151.17 453.7 165.57 453.37"/><text class="cls-1" transform="translate(85.86 496.74)">structured JSON</text><line class="cls-5" x1="58.12" y1="594.79" x2="122.45" y2="508.36"/><polygon class="cls-6" points="66.83 595.15 45 612.41 55.27 586.54 66.83 595.15"/><ellipse class="cls-2" cx="297" cy="665.41" rx="121.5" ry="53.5"/><text class="cls-1" transform="translate(203.5 673.59)"><tspan class="cls-10">T</tspan><tspan x="10" y="0">ext-Fabric converter</tspan></text><line class="cls-5" x1="260.36" y1="591.03" x2="191" y2="513.41"/><polygon class="cls-6" points="262.46 582.56 275 607.41 251.71 592.17 262.46 582.56"/><text class="cls-1" transform="translate(12.72 635.02)">archive</text><line class="cls-8" x1="306.7" y1="799.4" x2="304.82" y2="718.71"/><polygon class="cls-9" points="313.79 794.32 307.22 821.37 299.39 794.66 313.79 794.32"/><text class="cls-1" transform="translate(250.98 839.03)">TF data files</text></svg>